<svg width="101" height="112" viewBox="0 0 101 112" fill="none" xmlns="http://www.w3.org/2000/svg">
<path d="M8.34924 40.6767L8.33116 40.5207L8.22719 40.4031C1.42714 32.71 1.20266 27.0733 1.51458 24.1456C1.98005 20.5061 3.95874 17.3073 6.9625 14.5227C9.97006 11.7345 13.9839 9.3827 18.4586 7.44894C27.4085 3.58126 38.1093 1.42524 46.0177 0.760607C57.8737 -0.203748 70.4642 1.55797 80.5398 5.22129C85.5772 7.05281 89.9687 9.35342 93.3221 12.0115C96.6778 14.6715 98.9651 17.6659 99.8545 20.8808L99.8551 20.8828C100.401 22.8232 100.617 25.4938 100.44 28.1308C100.262 30.7746 99.6951 33.313 98.7289 35.0164L98.7264 35.0209C98.0911 36.1687 96.4777 38.9972 93.4276 40.0941L93.1167 40.2059L93.0977 40.5358C92.5265 50.4315 92.3149 61.1338 92.6428 72.5472L92.6428 72.5474C93.0162 85.4109 94.054 98.2462 95.752 111.002L85.6163 111.303L85.299 111.16L85.2116 111.121L85.1158 111.116C76.231 110.713 67.1703 110.42 57.9337 110.236L57.9323 110.236C40.034 109.928 22.7773 110.045 6.16249 110.587C8.54306 97.3312 9.80228 83.8969 9.92651 70.4276C10.0206 60.4873 9.49379 50.5508 8.34924 40.6767Z" fill="white" stroke="black"/>
<path d="M7.42379 41.7695L7.41467 41.5852L7.28799 41.451C3.30615 37.2328 -0.123297 31.7722 0.596224 26.187C1.03591 22.7962 2.94291 19.7664 5.88855 17.116C8.83575 14.4641 12.7982 12.2156 17.2824 10.3966C26.252 6.75826 37.2158 4.87595 46.0518 4.87595C55.0111 4.88122 64.97 6.47437 73.1244 9.54111C81.313 12.6206 87.5294 17.1261 89.2641 22.8536L89.2651 22.8568C89.8032 24.5914 91.0616 30.0074 88.9321 35.1455L88.9314 35.1472C88.6375 35.8635 88.066 37.2399 87.1061 38.6038C86.1451 39.9694 84.8199 41.2863 83.0346 41.928L82.7241 42.0397L82.7046 42.3691C82.1756 51.3321 81.9959 60.8772 82.1757 70.9404C82.419 84.3852 83.3549 97.8082 84.9796 111.156C77.1764 110.797 57.5766 110.677 39.7607 110.648C30.6522 110.632 22.0043 110.641 15.627 110.653C12.4383 110.659 9.81726 110.666 7.99005 110.671C7.07644 110.674 6.36129 110.676 5.87288 110.678L5.55773 110.679C6.76942 99.0666 7.61771 86.5043 7.88909 73.1046L7.88909 73.1045C8.11117 62.0649 7.91024 51.5986 7.42379 41.7695Z" fill="white" stroke="black"/>
</svg>
